<svg width="464" height="74" viewBox="0 0 464 74" fill="none" xmlns="http://www.w3.org/2000/svg">
<path d="M2.304 6.72H48.192C49.44 6.72 50.112 7.392 50.112 8.64V17.856C50.112 19.104 49.44 19.776 48.192 19.776H32.448V70.08C32.448 71.328 31.776 72 30.528 72H19.968C18.72 72 18.048 71.328 18.048 70.08V37.92C18.048 29.136 21.888 22.224 27.648 19.776H2.304C1.056 19.776 0.384 19.104 0.384 17.856V8.64C0.384 7.392 1.056 6.72 2.304 6.72ZM70.0988 73.536C54.9308 73.536 45.9068 64.128 45.9068 50.88C45.9068 37.632 55.0268 28.128 70.0988 28.128C85.0748 28.128 94.1948 37.632 94.1948 50.88C94.1948 64.224 85.1708 73.536 70.0988 73.536ZM70.0988 62.304C76.4348 62.304 79.8908 57.408 79.8908 50.976C79.8908 44.448 76.4348 39.36 70.0988 39.36C63.7628 39.36 60.2108 44.544 60.2108 50.976C60.2108 57.312 63.6668 62.304 70.0988 62.304ZM150.629 54.144L153.509 44.544C156.773 33.6 163.301 28.704 173.381 28.704L159.941 70.464C159.557 71.616 158.885 72 157.829 72H147.557C146.5 72 145.733 71.616 145.253 70.56L134.789 46.656L124.421 70.56C124.036 71.52 123.173 72 122.117 72H111.749C110.693 72 109.924 71.52 109.637 70.464L97.1565 31.872C96.7725 30.528 97.4445 29.664 98.7885 29.664H109.637C110.693 29.664 111.461 30.24 111.749 31.296L118.901 54.192L123.653 43.2C127.973 33.12 133.061 28.704 139.397 28.704L150.629 54.144ZM206.247 28.128C217.575 28.128 222.183 35.904 222.183 47.424V70.08C222.183 71.328 221.511 72 220.263 72H209.703C208.455 72 207.783 71.328 207.783 70.08V47.424C207.783 42.432 205.863 39.648 201.351 39.648C197.271 39.648 193.959 42.864 193.383 48.144V70.08C193.383 71.328 192.711 72 191.463 72H180.903C179.655 72 178.983 71.328 178.983 70.08V28.704C184.647 29.856 188.775 32.736 191.127 37.008C195.495 30.576 200.679 28.128 206.247 28.128ZM286.411 47.616L291.211 24.672C294.187 10.56 301.195 4.8 310.219 4.8L294.667 70.368C294.379 71.424 293.707 72 292.555 72H282.667C281.611 72 280.843 71.424 280.555 70.368L268.507 30.432L256.267 70.368C255.979 71.424 255.211 72 254.155 72H244.267C243.115 72 242.443 71.424 242.155 70.368L227.467 8.832C227.179 7.584 227.851 6.72 229.195 6.72H240.139C241.291 6.72 242.059 7.296 242.251 8.44799L250.411 47.52L257.611 23.616C261.835 9.696 266.635 6.528 273.163 4.8L286.411 47.616ZM333.358 28.128C346.222 28.128 356.782 35.904 356.782 49.92V51.648C356.782 52.896 356.11 53.568 354.862 53.568H323.95C324.334 59.424 327.694 63.264 333.07 63.264C337.294 63.264 340.078 61.344 341.23 58.752C341.71 57.696 342.286 57.12 343.342 57.12H353.998C355.342 57.12 356.11 57.984 355.63 59.328C352.27 68.928 343.918 73.536 333.358 73.536C318.766 73.536 308.686 64.896 308.686 50.88C308.686 37.056 319.15 28.128 333.358 28.128ZM324.142 45.792H341.518C341.23 41.184 337.966 37.92 332.878 37.92C327.55 37.92 324.958 41.184 324.142 45.792ZM393.035 28.128C405.515 28.128 414.155 37.44 414.155 50.784C414.155 64.224 405.515 73.536 393.035 73.536C386.027 73.536 380.219 70.608 376.475 65.616C374.171 70.416 369.995 72.96 364.139 72.96V-5.72205e-06C373.451 1.92 378.539 8.352 378.539 18.24V33.696C382.187 30.144 387.179 28.128 393.035 28.128ZM388.619 62.016C394.475 62.016 398.699 57.408 398.699 50.88C398.699 44.352 394.475 39.744 388.619 39.744C382.763 39.744 378.539 44.352 378.539 50.88C378.539 57.408 382.763 62.016 388.619 62.016ZM442.442 73.536C430.25 73.536 421.226 68.928 419.402 58.272C419.21 57.024 419.978 56.256 421.226 56.256H431.69C432.842 56.256 433.418 56.928 433.706 58.08C434.858 62.592 440.138 63.552 442.73 63.552C447.242 63.552 449.354 61.824 449.354 59.424C449.354 51.552 421.034 58.848 421.034 41.76C421.034 33.6 428.042 28.128 441.098 28.128C452.33 28.128 459.722 32.16 461.834 40.416C462.122 41.76 461.45 42.528 460.106 42.528H449.834C448.778 42.528 448.106 41.952 447.626 40.896C446.474 38.4 444.458 37.056 440.33 37.056C436.97 37.056 435.53 38.4 435.53 39.84C435.53 47.232 463.85 40.608 463.85 58.08C463.85 67.872 455.978 73.536 442.442 73.536Z" fill="#5271FF"/>
</svg>
